<svg xmlns="http://www.w3.org/2000/svg" version="1.1" xmlns:xlink="http://www.w3.org/1999/xlink" xmlns:svgjs="http://svgjs.dev/svgjs" width="1000" height="623" viewBox="0 0 1000 623"><g transform="matrix(1,0,0,1,-0.6060606060606233,0.2522267206477409)"><svg viewBox="0 0 396 247" data-background-color="#4d9ff4" preserveAspectRatio="xMidYMid meet" height="623" width="1000" xmlns="http://www.w3.org/2000/svg" xmlns:xlink="http://www.w3.org/1999/xlink"><g id="tight-bounds" transform="matrix(1,0,0,1,0.2400000000000091,-0.09999999999999432)"><svg viewBox="0 0 395.52 247.2" height="247.2" width="395.52"><g><svg></svg></g><g><svg viewBox="0 0 395.52 247.2" height="247.2" width="395.52"><g transform="matrix(1,0,0,1,75.54432,80.38890654228156)"><svg viewBox="0 0 244.43135999999998 86.42218691543687" height="86.42218691543687" width="244.43135999999998"><g><svg viewBox="0 0 427.2450812026434 151.05858048" height="86.42218691543687" width="244.43135999999998"><g transform="matrix(1,0,0,1,182.81372120264345,48.62681754252675)"><svg viewBox="0 0 244.43135999999998 53.80494539494649" height="53.80494539494649" width="244.43135999999998"><g id="textblocktransform"><svg viewBox="0 0 244.43135999999998 53.80494539494649" height="53.80494539494649" width="244.43135999999998" id="textblock"><g><svg viewBox="0 0 244.43135999999998 53.80494539494649" height="53.80494539494649" width="244.43135999999998"><g transform="matrix(1,0,0,1,0,0)"><svg width="244.43135999999998" viewBox="-0.05000000447034836 -47 219.6300048828125 48.349998474121094" height="53.80494539494649" data-palette-color="#ffffff"><path d="M11.6 0.25Q9.75 0.25 8.95-0.58 8.15-1.4 8.15-3.7L8.15-3.7Q8.15-5.25 8.47-7.68 8.8-10.1 9.55-14.35L9.55-14.35Q10.85-22.2 11.6-27.95L11.6-27.95Q12.05-31.55 12.05-33.95L12.05-33.95Q12.05-36.2 10.4-36.2L10.4-36.2Q9.1-36.2 7.28-34.88 5.45-33.55 3.25-30.65L3.25-30.65Q2.55-29.7 1.7-29.7L1.7-29.7Q1-29.7 0.48-30.38-0.05-31.05-0.05-31.9L-0.05-31.9Q-0.05-32.7 0.28-33.52 0.6-34.35 1.35-35.4L1.35-35.4Q3.75-38.75 6.7-40.58 9.65-42.4 12.6-42.4L12.6-42.4Q15.35-42.4 16.82-40.65 18.3-38.9 18.3-35.55L18.3-35.55Q18.3-34.2 18.05-32.38 17.8-30.55 17.6-29.4 17.4-28.25 17.3-27.8L17.3-27.8Q20.15-35.95 23.7-39.18 27.25-42.4 31.5-42.4L31.5-42.4Q34.75-42.4 36.63-40.1 38.5-37.8 38.5-33.6L38.5-33.6Q38.5-31.95 38.05-29.5L38.05-29.5Q40.55-36.4 43.9-39.4 47.25-42.4 51.6-42.4L51.6-42.4Q55.1-42.4 56.98-40.15 58.85-37.9 58.85-33.85L58.85-33.85Q58.85-31.65 58.2-28.5L58.2-28.5 55.15-14.2Q54.65-11.7 54.65-9.9L54.65-9.9Q54.65-7.8 55.63-6.75 56.6-5.7 58.35-5.7L58.35-5.7Q60-5.7 61.58-6.8 63.15-7.9 65.3-10.45L65.3-10.45Q65.9-11.15 66.65-11.15L66.65-11.15Q67.3-11.15 67.67-10.55 68.05-9.95 68.05-8.9L68.05-8.9Q68.05-6.95 67.1-5.8L67.1-5.8Q64.5-2.65 61.95-1.2 59.4 0.25 56.6 0.25L56.6 0.25Q52.35 0.25 49.95-2.27 47.55-4.8 47.55-9.05L47.55-9.05Q47.55-12 48.75-17.6L48.75-17.6 50.75-26.75Q50.85-27.2 51.1-28.35 51.35-29.5 51.5-30.53 51.65-31.55 51.65-32.55L51.65-32.55Q51.65-34.3 50.98-35.18 50.3-36.05 49.05-36.05L49.05-36.05Q46.7-36.05 44.13-33.02 41.55-30 39.23-23 36.9-16 35.45-4.8L35.45-4.8Q35.1-1.8 34.23-0.78 33.35 0.25 31.4 0.25L31.4 0.25Q29.7 0.25 28.93-0.55 28.15-1.35 28.15-3.55L28.15-3.55Q28.15-5.6 28.7-8.93 29.25-12.25 30.1-16.75L30.1-16.75Q32.4-28.85 32.4-32.35L32.4-32.35Q32.4-34.25 31.68-35.15 30.95-36.05 29.5-36.05L29.5-36.05Q27.05-36.05 24.45-33.27 21.85-30.5 19.38-23.43 16.9-16.35 15.25-4.3L15.25-4.3Q14.9-1.75 14.23-0.75 13.55 0.25 11.6 0.25L11.6 0.25ZM70.15 0.25Q67.05 0.25 65.2-2 63.35-4.25 63.35-7.9L63.35-7.9Q63.35-11.9 65.2-15.48 67.05-19.05 70.12-21.23 73.2-23.4 76.65-23.4L76.65-23.4Q77.75-23.4 78.12-22.98 78.5-22.55 78.75-21.45L78.75-21.45Q79.8-21.65 80.95-21.65L80.95-21.65Q83.4-21.65 83.4-19.9L83.4-19.9Q83.4-18.85 82.65-14.9L82.65-14.9Q81.5-9.15 81.5-6.9L81.5-6.9Q81.5-6.15 81.87-5.7 82.25-5.25 82.85-5.25L82.85-5.25Q83.8-5.25 85.15-6.48 86.5-7.7 88.8-10.45L88.8-10.45Q89.4-11.15 90.15-11.15L90.15-11.15Q90.8-11.15 91.17-10.55 91.55-9.95 91.55-8.9L91.55-8.9Q91.55-6.9 90.6-5.8L90.6-5.8Q88.55-3.25 86.25-1.5 83.95 0.25 81.8 0.25L81.8 0.25Q80.15 0.25 78.77-0.88 77.4-2 76.7-3.95L76.7-3.95Q74.1 0.25 70.15 0.25L70.15 0.25ZM71.95-4.8Q73.05-4.8 74.05-6.1 75.05-7.4 75.5-9.55L75.5-9.55 77.35-18.75Q75.25-18.7 73.47-17.18 71.7-15.65 70.65-13.15 69.6-10.65 69.6-7.85L69.6-7.85Q69.6-6.3 70.22-5.55 70.85-4.8 71.95-4.8L71.95-4.8ZM96.8 1.35Q94.19 1.35 92.82 0.15 91.44-1.05 91.44-2.55L91.44-2.55Q91.44-3.85 92.39-4.8 93.34-5.75 95.19-5.75L95.19-5.75Q95.84-5.75 96.72-5.63 97.59-5.5 98.05-5.45L98.05-5.45Q98-6.75 97.47-7.9 96.94-9.05 96.14-10.13 95.34-11.2 94.64-12L94.64-12Q93.09-9.05 91.57-7.1 90.05-5.15 88.25-3.4L88.25-3.4Q87.34-2.5 86.34-2.5L86.34-2.5Q85.55-2.5 85.05-3.08 84.55-3.65 84.55-4.5L84.55-4.5Q84.55-5.5 85.25-6.35L85.25-6.35 85.89-7.15Q88.64-10.55 90.05-12.75L90.05-12.75Q90.89-14.2 92.05-16.63 93.19-19.05 94.3-21.65L94.3-21.65Q95.25-23.85 98.25-23.85L98.25-23.85Q99.64-23.85 100.19-23.6 100.75-23.35 100.75-22.8L100.75-22.8Q100.75-22.5 100.55-21.85 100.34-21.2 100-20.55L100-20.55Q99.09-18.75 99.09-17.5L99.09-17.5Q99.09-16.75 99.62-15.85 100.14-14.95 101.25-13.6L101.25-13.6Q102.84-11.5 103.67-10.03 104.5-8.55 104.5-6.8L104.5-6.8Q104.5-6.3 104.39-5.4L104.39-5.4Q106.84-6.35 110.14-10.45L110.14-10.45Q110.75-11.15 111.5-11.15L111.5-11.15Q112.14-11.15 112.52-10.55 112.89-9.95 112.89-8.9L112.89-8.9Q112.89-7 111.94-5.8L111.94-5.8Q109.44-2.7 107.17-1.58 104.89-0.45 101.55-0.35L101.55-0.35Q99.55 1.35 96.8 1.35L96.8 1.35ZM134.34-15.35Q134.99-15.35 135.34-14.7 135.69-14.05 135.69-13.05L135.69-13.05Q135.69-10.65 134.24-10.2L134.24-10.2Q131.24-9.15 127.64-9L127.64-9Q126.69-4.8 123.89-2.27 121.09 0.25 117.54 0.25L117.54 0.25Q114.54 0.25 112.42-1.2 110.29-2.65 109.19-5.05 108.09-7.45 108.09-10.25L108.09-10.25Q108.09-14.05 109.54-17.03 110.99-20 113.54-21.68 116.09-23.35 119.19-23.35L119.19-23.35Q122.99-23.35 125.32-20.73 127.64-18.1 128.04-14.25L128.04-14.25Q130.39-14.4 133.64-15.25L133.64-15.25Q134.04-15.35 134.34-15.35L134.34-15.35ZM117.94-5.05Q119.54-5.05 120.72-6.35 121.89-7.65 122.29-10.1L122.29-10.1Q120.74-11.15 119.92-12.85 119.09-14.55 119.09-16.45L119.09-16.45Q119.09-17.25 119.24-18.05L119.24-18.05 118.99-18.05Q116.99-18.05 115.67-16.13 114.34-14.2 114.34-10.7L114.34-10.7Q114.34-7.95 115.42-6.5 116.49-5.05 117.94-5.05L117.94-5.05ZM156.89-15.35Q157.54-15.35 157.89-14.7 158.24-14.05 158.24-13.05L158.24-13.05Q158.24-10.65 156.79-10.2L156.79-10.2Q153.79-9.15 150.19-9L150.19-9Q149.24-4.8 146.44-2.27 143.64 0.25 140.09 0.25L140.09 0.25Q137.09 0.25 134.97-1.2 132.84-2.65 131.74-5.05 130.64-7.45 130.64-10.25L130.64-10.25Q130.64-14.05 132.09-17.03 133.54-20 136.09-21.68 138.64-23.35 141.74-23.35L141.74-23.35Q145.54-23.35 147.87-20.73 150.19-18.1 150.59-14.25L150.59-14.25Q152.94-14.4 156.19-15.25L156.19-15.25Q156.59-15.35 156.89-15.35L156.89-15.35ZM140.49-5.05Q142.09-5.05 143.27-6.35 144.44-7.65 144.84-10.1L144.84-10.1Q143.29-11.15 142.47-12.85 141.64-14.55 141.64-16.45L141.64-16.45Q141.64-17.25 141.79-18.05L141.79-18.05 141.54-18.05Q139.54-18.05 138.22-16.13 136.89-14.2 136.89-10.7L136.89-10.7Q136.89-7.95 137.97-6.5 139.04-5.05 140.49-5.05L140.49-5.05ZM182.34-11.15Q182.99-11.15 183.36-10.55 183.74-9.95 183.74-8.9L183.74-8.9Q183.74-6.9 182.79-5.8L182.79-5.8Q180.74-3.3 178.29-1.53 175.84 0.25 173.44 0.25L173.44 0.25Q169.64 0.25 167.64-4.2L167.64-4.2Q165.54-1.55 163.96-0.65 162.39 0.25 160.29 0.25L160.29 0.25Q157.24 0.25 155.26-2.02 153.29-4.3 153.29-7.95L153.29-7.95Q153.29-11.95 154.99-15.38 156.69-18.8 159.66-20.98 162.64-23.15 166.34-23.55L166.34-23.55Q167.29-33.25 169.96-40.13 172.64-47 176.99-47L176.99-47Q179.14-47 180.56-45.05 181.99-43.1 181.99-39.15L181.99-39.15Q181.99-33.55 179.24-26.05 176.49-18.55 171.89-10.65L171.89-10.65Q172.09-7.75 172.76-6.5 173.44-5.25 174.49-5.25L174.49-5.25Q175.84-5.25 177.24-6.45 178.64-7.65 180.99-10.45L180.99-10.45Q181.59-11.15 182.34-11.15L182.34-11.15ZM176.44-42.1Q175.49-42.1 174.54-38.73 173.59-35.35 172.91-29.9 172.24-24.45 171.94-18.5L171.94-18.5Q177.54-30.7 177.54-38.1L177.54-38.1Q177.54-40 177.21-41.05 176.89-42.1 176.44-42.1L176.44-42.1ZM162.04-4.8Q162.99-4.8 163.94-5.58 164.89-6.35 166.34-8.45L166.34-8.45Q165.84-11.15 165.84-14.5L165.84-14.5Q165.84-15.7 165.94-18.4L165.94-18.4Q163.19-17.55 161.36-14.73 159.54-11.9 159.54-8.45L159.54-8.45Q159.54-4.8 162.04-4.8L162.04-4.8ZM185.74-25.1Q184.49-25.1 183.66-25.78 182.84-26.45 182.99-28.05L182.99-28.05 183.99-37.6Q184.49-42.2 188.34-42.2L188.34-42.2Q191.64-42.2 191.64-39.1L191.64-39.1Q191.64-38.4 191.39-37.25L191.39-37.25 189.39-28.05Q189.04-26.45 188.04-25.78 187.04-25.1 185.74-25.1L185.74-25.1ZM203.48 1.35Q200.88 1.35 199.51 0.15 198.13-1.05 198.13-2.55L198.13-2.55Q198.13-3.85 199.08-4.8 200.03-5.75 201.88-5.75L201.88-5.75Q202.53-5.75 203.41-5.63 204.28-5.5 204.73-5.45L204.73-5.45Q204.68-6.75 204.16-7.9 203.63-9.05 202.83-10.13 202.03-11.2 201.33-12L201.33-12Q199.78-9.05 198.26-7.1 196.73-5.15 194.93-3.4L194.93-3.4Q194.03-2.5 193.03-2.5L193.03-2.5Q192.23-2.5 191.73-3.08 191.23-3.65 191.23-4.5L191.23-4.5Q191.23-5.5 191.93-6.35L191.93-6.35 192.58-7.15Q195.33-10.55 196.73-12.75L196.73-12.75Q197.58-14.2 198.73-16.63 199.88-19.05 200.98-21.65L200.98-21.65Q201.93-23.85 204.93-23.85L204.93-23.85Q206.33-23.85 206.88-23.6 207.43-23.35 207.43-22.8L207.43-22.8Q207.43-22.5 207.23-21.85 207.03-21.2 206.68-20.55L206.68-20.55Q205.78-18.75 205.78-17.5L205.78-17.5Q205.78-16.75 206.31-15.85 206.83-14.95 207.93-13.6L207.93-13.6Q209.53-11.5 210.36-10.03 211.18-8.55 211.18-6.8L211.18-6.8Q211.18-6.3 211.08-5.4L211.08-5.4Q213.53-6.35 216.83-10.45L216.83-10.45Q217.43-11.15 218.18-11.15L218.18-11.15Q218.83-11.15 219.21-10.55 219.58-9.95 219.58-8.9L219.58-8.9Q219.58-7 218.63-5.8L218.63-5.8Q216.13-2.7 213.86-1.58 211.58-0.45 208.23-0.35L208.23-0.35Q206.23 1.35 203.48 1.35L203.48 1.35Z" opacity="1" transform="matrix(1,0,0,1,0,0)" fill="#ffffff" class="wordmark-text-0" data-fill-palette-color="primary" id="text-0"></path></svg></g></svg></g></svg></g></svg></g><g><svg viewBox="0 0 151.05858048 151.05858048" height="151.05858048" width="151.05858048"><g><svg viewBox="0 0 151.05858048 151.05858048" height="151.05858048" width="151.05858048"><g transform="matrix(1,0,0,1,47.978878866690934,39.92444136872605)"><svg viewBox="0 0 55.10082274661812 71.20969774254789" height="71.20969774254789" width="55.10082274661812"><g><svg xmlns="http://www.w3.org/2000/svg" xmlns:xlink="http://www.w3.org/1999/xlink" version="1.1" x="0" y="0" viewBox="12.982999801635742 1 75.68599700927734 97.81300354003906" enable-background="new 0 0 100 100" xml:space="preserve" height="71.20969774254789" width="55.10082274661812" class="icon-s-0" data-fill-palette-color="accent" id="s-0"><g fill="#bf2051" data-fill-palette-color="accent"><polygon fill-rule="evenodd" clip-rule="evenodd" points="12.983,10.59 30.001,98.813 24.129,39.764 53.15,37.872 53.096,27.989    64.549,1 53.622,18.977  " fill="#bf2051" data-fill-palette-color="accent"></polygon><polygon fill-rule="evenodd" clip-rule="evenodd" points="59.389,54.548 64.549,1.007 55.809,40.723 36.197,41.768 37.767,62.23    30.001,98.813 42.058,58.914  " fill="#bf2051" data-fill-palette-color="accent"></polygon><polygon fill-rule="evenodd" clip-rule="evenodd" points="62.8,67.182 63.349,56.729 47.37,60.484 47.338,72.281 30.001,98.813    51.681,71.197  " fill="#bf2051" data-fill-palette-color="accent"></polygon><polygon fill-rule="evenodd" clip-rule="evenodd" points="65.711,62.394 80.552,57.663 82.061,45.131 66.162,47.226  " fill="#bf2051" data-fill-palette-color="accent"></polygon><polygon fill-rule="evenodd" clip-rule="evenodd" points="72.07,44.502 83.058,43.085 84.639,32.807 76.56,32.434 64.549,1    72.979,31.967  " fill="#bf2051" data-fill-palette-color="accent"></polygon><polygon fill-rule="evenodd" clip-rule="evenodd" points="87.413,31.294 88.669,21.788 79.125,19.094 64.549,1 79.032,23.437    78.61,30.437  " fill="#bf2051" data-fill-palette-color="accent"></polygon></g></svg></g></svg></g><g><path d="M14.817 55.296c-0.196 0.417-0.428 0.671-0.696 0.762-0.268 0.091-0.659 0.016-1.174-0.227v0c-0.35-0.165-0.778-0.407-1.286-0.729-0.511-0.33-1.201-0.805-2.071-1.424v0c-1.624-1.117-3.04-2.064-4.247-2.842v0c-0.757-0.476-1.405-0.841-1.945-1.095v0c-0.503-0.237-0.841-0.171-1.014 0.197v0c-0.139 0.294-0.153 0.715-0.043 1.261 0.101 0.549 0.361 1.222 0.78 2.018v0c0.14 0.26 0.165 0.486 0.075 0.676v0c-0.072 0.153-0.214 0.255-0.424 0.306-0.208 0.044-0.407 0.022-0.598-0.068v0c-0.178-0.084-0.341-0.206-0.49-0.366-0.149-0.16-0.305-0.379-0.466-0.657v0c-0.494-0.892-0.791-1.765-0.89-2.621-0.096-0.847 0.012-1.601 0.324-2.263v0c0.289-0.613 0.707-0.993 1.255-1.14 0.548-0.146 1.196-0.044 1.945 0.309v0c0.3 0.141 0.643 0.336 1.028 0.585 0.379 0.246 0.687 0.451 0.924 0.615 0.234 0.17 0.399 0.289 0.495 0.356v0c-1.527-1.498-2.463-2.811-2.809-3.94-0.348-1.138-0.299-2.182 0.149-3.132v0c0.343-0.73 0.871-1.182 1.582-1.356 0.714-0.181 1.54-0.05 2.479 0.391v0c0.368 0.173 0.803 0.442 1.306 0.806v0c-1.28-1.291-2.081-2.47-2.403-3.535-0.316-1.063-0.245-2.081 0.214-3.057v0c0.369-0.785 0.904-1.267 1.602-1.447 0.702-0.186 1.507-0.066 2.415 0.361v0c0.491 0.231 1.054 0.586 1.689 1.065v0l4.321 3.28c0.512 0.376 0.971 0.659 1.375 0.85v0c0.466 0.219 0.869 0.278 1.209 0.176 0.337-0.111 0.598-0.363 0.783-0.755v0c0.173-0.368 0.219-0.784 0.138-1.249-0.078-0.471-0.292-1.081-0.643-1.831v0c-0.09-0.207-0.094-0.396-0.014-0.569v0c0.066-0.141 0.187-0.223 0.363-0.245 0.175-0.022 0.379 0.021 0.612 0.131v0c0.435 0.205 0.731 0.475 0.888 0.811v0c0.431 0.914 0.675 1.733 0.731 2.457 0.057 0.723-0.062 1.398-0.356 2.023v0c-0.447 0.95-1.08 1.563-1.899 1.837-0.818 0.274-1.702 0.187-2.652-0.26v0c-0.662-0.312-1.558-0.898-2.689-1.76v0l-2.756-2.118c-0.087-0.071-0.246-0.194-0.477-0.37-0.232-0.176-0.457-0.335-0.675-0.475-0.21-0.144-0.428-0.269-0.655-0.376v0c-0.386-0.182-0.714-0.242-0.982-0.181-0.265 0.055-0.465 0.223-0.597 0.505v0c-0.248 0.527-0.171 1.238 0.232 2.132 0.409 0.897 1.273 1.974 2.592 3.231 1.324 1.26 3.164 2.643 5.519 4.148v0c0.634 0.388 1.021 0.735 1.161 1.041 0.135 0.303 0.099 0.672-0.105 1.108v0c-0.182 0.386-0.402 0.623-0.661 0.711-0.259 0.088-0.636 0.015-1.133-0.219v0c-0.454-0.214-1.026-0.558-1.716-1.032-0.684-0.472-1.487-1.041-2.41-1.707v0c-2.462-1.788-4.085-2.867-4.87-3.236v0c-0.429-0.202-0.779-0.27-1.05-0.203-0.28 0.07-0.497 0.268-0.65 0.593v0c-0.257 0.546-0.213 1.256 0.132 2.13 0.345 0.874 1.18 1.964 2.506 3.269 1.322 1.296 3.246 2.764 5.771 4.402v0c0.533 0.348 0.876 0.652 1.031 0.912 0.151 0.251 0.125 0.594-0.08 1.03z" fill="#bf2051" data-fill-palette-color="accent"></path><path d="M32.853 26.771c-0.588 0.49-1.237 0.67-1.947 0.538-0.705-0.136-1.345-0.55-1.923-1.243v0c-0.638-0.765-1.065-1.632-1.28-2.599-0.214-0.977-0.202-1.914 0.039-2.811 0.245-0.902 0.696-1.626 1.352-2.173v0c0.208-0.174 0.379-0.25 0.511-0.228 0.142 0.023 0.324 0.118 0.544 0.288v0c0.168-0.211 0.362-0.407 0.581-0.59v0c0.463-0.386 0.834-0.413 1.111-0.08v0c0.169 0.203 0.496 0.738 0.981 1.605v0c0.693 1.275 1.217 2.127 1.572 2.553v0c0.117 0.141 0.246 0.227 0.388 0.259 0.142 0.023 0.271-0.014 0.386-0.109v0c0.182-0.152 0.305-0.449 0.369-0.89 0.06-0.447 0.089-1.115 0.088-2.006v0c0.006-0.226 0.079-0.397 0.22-0.514v0c0.125-0.104 0.272-0.129 0.44-0.076 0.168 0.054 0.335 0.18 0.5 0.378v0c0.317 0.38 0.471 0.75 0.462 1.11v0c0.013 0.81-0.06 1.563-0.219 2.261-0.16 0.698-0.442 1.216-0.849 1.554v0c-0.318 0.265-0.695 0.399-1.133 0.402-0.438 0.004-0.879-0.123-1.323-0.38v0c0.169 1.209-0.121 2.125-0.87 2.751zM32.171 24.904c0.208-0.174 0.304-0.466 0.288-0.876-0.017-0.401-0.152-0.844-0.406-1.328v0l-1.664-3.06c-0.392 0.345-0.633 0.801-0.723 1.371-0.095 0.574-0.047 1.182 0.144 1.824 0.197 0.639 0.517 1.223 0.96 1.755v0c0.247 0.297 0.489 0.465 0.726 0.506 0.241 0.046 0.466-0.018 0.675-0.192z" fill="#bf2051" data-fill-palette-color="accent"></path><path d="M52.417 15.306c-0.603 0.225-1.116 0.257-1.537 0.095-0.419-0.155-0.694-0.407-0.825-0.756v0c-0.114-0.305-0.099-0.607 0.043-0.905 0.133-0.303 0.416-0.535 0.847-0.696v0c0.152-0.057 0.333-0.106 0.542-0.147 0.213-0.05 0.375-0.089 0.488-0.117v0c-0.124-0.294-0.296-0.552-0.516-0.773-0.22-0.222-0.473-0.424-0.758-0.608-0.276-0.179-0.528-0.331-0.755-0.456v0c-0.106 0.821-0.254 1.523-0.442 2.106-0.181 0.581-0.406 1.153-0.673 1.716v0c-0.131 0.288-0.312 0.474-0.54 0.559v0c-0.191 0.071-0.368 0.061-0.532-0.03-0.164-0.091-0.283-0.235-0.356-0.431v0c-0.088-0.235-0.089-0.48-0.003-0.737v0l0.126-0.361c0.348-1.026 0.588-1.857 0.72-2.492v0c0.071-0.41 0.136-0.944 0.195-1.603 0.056-0.665 0.099-1.346 0.128-2.043v0c0.033-0.591 0.396-1.015 1.088-1.273v0c0.324-0.121 0.56-0.176 0.708-0.167 0.148 0.01 0.246 0.078 0.294 0.206v0c0.026 0.07 0.045 0.189 0.057 0.358 0.012 0.169 0.006 0.345-0.02 0.528v0c-0.056 0.491-0.029 0.882 0.08 1.175v0c0.064 0.171 0.195 0.34 0.393 0.504 0.205 0.162 0.493 0.352 0.863 0.568v0c0.551 0.352 0.985 0.664 1.303 0.936 0.318 0.272 0.553 0.611 0.705 1.017v0c0.043 0.114 0.093 0.28 0.152 0.497v0c0.482-0.433 0.93-1.269 1.344-2.508v0c0.081-0.211 0.207-0.348 0.378-0.412v0c0.152-0.057 0.296-0.031 0.431 0.078 0.141 0.107 0.256 0.281 0.346 0.522v0c0.163 0.438 0.186 0.838 0.068 1.201v0c-0.311 0.933-0.681 1.628-1.111 2.084-0.428 0.463-1.025 0.849-1.793 1.156v0c-0.317 0.566-0.796 0.969-1.438 1.209z" fill="#bf2051" data-fill-palette-color="accent"></path><path d="M78.527 4.645c0.156-0.005 0.28 0.069 0.373 0.222 0.093 0.16 0.144 0.362 0.151 0.605v0c0.019 0.596-0.149 0.957-0.504 1.084v0c-0.73 0.281-1.542 0.453-2.435 0.516v0c-0.204 1.051-0.641 1.899-1.312 2.543-0.671 0.645-1.447 0.982-2.327 1.011v0c-0.738 0.024-1.377-0.136-1.917-0.478-0.533-0.342-0.948-0.804-1.245-1.384-0.29-0.587-0.446-1.227-0.468-1.918v0c-0.03-0.942 0.123-1.787 0.458-2.537 0.336-0.743 0.812-1.331 1.429-1.764 0.617-0.44 1.311-0.672 2.083-0.697v0c0.935-0.03 1.7 0.271 2.297 0.902 0.597 0.632 0.961 1.424 1.093 2.376v0c0.581-0.059 1.268-0.207 2.06-0.442v0c0.101-0.024 0.189-0.037 0.264-0.039zM72.563 8.66c0.393-0.013 0.73-0.186 1.01-0.521 0.281-0.328 0.463-0.798 0.545-1.411v0c-0.394-0.245-0.7-0.574-0.916-0.987-0.217-0.413-0.333-0.857-0.348-1.332v0c-0.006-0.196 0.004-0.393 0.032-0.591v0l-0.091 0.003c-0.494 0.016-0.897 0.266-1.207 0.751-0.317 0.485-0.461 1.161-0.434 2.027v0c0.022 0.684 0.174 1.201 0.457 1.552 0.276 0.351 0.593 0.52 0.952 0.509z" fill="#bf2051" data-fill-palette-color="accent"></path><path d="M101.273 9.474c0.149 0.046 0.242 0.157 0.281 0.332 0.036 0.181 0.018 0.389-0.055 0.622v0c-0.177 0.57-0.454 0.856-0.831 0.859v0c-0.782 0.027-1.605-0.076-2.469-0.309v0c-0.536 0.926-1.226 1.585-2.072 1.976-0.845 0.391-1.688 0.455-2.529 0.194v0c-0.705-0.219-1.257-0.578-1.656-1.078-0.392-0.498-0.633-1.069-0.724-1.715-0.082-0.65-0.021-1.305 0.184-1.965v0c0.279-0.9 0.7-1.649 1.262-2.248 0.56-0.593 1.202-0.993 1.927-1.201 0.727-0.214 1.459-0.207 2.197 0.022v0c0.893 0.277 1.518 0.812 1.875 1.604 0.357 0.792 0.443 1.66 0.257 2.602v0c0.569 0.134 1.266 0.219 2.092 0.256v0c0.103 0.011 0.19 0.027 0.261 0.049zM94.325 11.319c0.375 0.117 0.75 0.063 1.125-0.161 0.373-0.218 0.698-0.603 0.976-1.156v0c-0.293-0.36-0.474-0.771-0.543-1.233-0.07-0.462-0.034-0.919 0.106-1.372v0c0.058-0.188 0.133-0.37 0.224-0.548v0l-0.088-0.027c-0.472-0.147-0.934-0.042-1.385 0.315-0.458 0.355-0.815 0.946-1.073 1.775v0c-0.203 0.654-0.228 1.192-0.076 1.615 0.146 0.421 0.39 0.685 0.734 0.792z" fill="#bf2051" data-fill-palette-color="accent"></path><path d="M121.085 23.435c0.125 0.093 0.181 0.228 0.168 0.404-0.013 0.176-0.097 0.368-0.251 0.574v0c-0.296 0.396-0.62 0.632-0.973 0.707v0c-0.78 0.195-1.542 0.286-2.285 0.273-0.752-0.012-1.365-0.194-1.837-0.547v0c-0.755-0.564-1.002-1.433-0.741-2.609v0c-0.807 0.209-1.433 0.287-1.876 0.236-0.449-0.056-0.882-0.24-1.3-0.553v0c-0.603-0.45-0.931-1.047-0.986-1.789-0.054-0.743 0.188-1.475 0.728-2.197v0c0.592-0.793 1.31-1.403 2.153-1.83 0.844-0.427 1.723-0.637 2.64-0.63 0.907 0.009 1.757 0.247 2.551 0.713v0c1.626-1.78 3.213-3.153 4.764-4.119 1.545-0.97 2.749-1.132 3.611-0.487v0c0.429 0.32 0.641 0.779 0.635 1.375-0.006 0.596-0.3 1.286-0.884 2.068v0c-0.831 1.113-2.077 2.209-3.736 3.287-1.654 1.082-3.521 2.065-5.602 2.947v0c-0.392 0.604-0.613 1.081-0.664 1.432-0.047 0.346 0.033 0.596 0.24 0.75v0c0.266 0.199 0.627 0.282 1.082 0.25 0.457-0.023 1.125-0.141 2.004-0.356v0c0.221-0.047 0.407-0.013 0.559 0.101zM126.2 12.917c-0.185-0.138-0.621 0.056-1.311 0.583-0.689 0.526-1.505 1.278-2.447 2.257-0.937 0.983-1.876 2.042-2.816 3.175v0c2.912-1.589 4.916-3.116 6.011-4.582v0c0.284-0.38 0.473-0.696 0.568-0.947 0.089-0.255 0.087-0.417-0.005-0.486zM113.63 20.811c0.19 0.142 0.439 0.205 0.747 0.189 0.298-0.014 0.747-0.123 1.347-0.326v0c0.3-0.605 0.697-1.239 1.192-1.901v0c0.178-0.239 0.479-0.619 0.902-1.14v0c-0.674-0.241-1.399-0.216-2.175 0.075-0.781 0.288-1.428 0.773-1.939 1.458v0c-0.543 0.728-0.568 1.276-0.074 1.645z" fill="#bf2051" data-fill-palette-color="accent"></path><path d="M135.709 32.06c-0.186-0.251-0.273-0.506-0.264-0.766 0.015-0.264 0.191-0.5 0.527-0.706v0l3.075-1.809c0.988-0.58 1.764-0.488 2.328 0.274v0c0.488 0.659 0.424 1.216-0.191 1.672v0c-0.142 0.105-0.345 0.217-0.61 0.338v0l-3.186 1.436c-0.368 0.163-0.693 0.197-0.975 0.102-0.28-0.105-0.515-0.285-0.704-0.541z" fill="#bf2051" data-fill-palette-color="accent"></path><path d="M136.268 55.326c-0.187-0.616-0.187-1.129-0.001-1.541 0.18-0.409 0.449-0.668 0.806-0.776v0c0.311-0.095 0.612-0.062 0.901 0.098 0.294 0.151 0.508 0.448 0.642 0.889v0c0.047 0.156 0.085 0.339 0.114 0.549 0.037 0.215 0.066 0.38 0.086 0.495v0c0.301-0.106 0.569-0.261 0.804-0.468 0.235-0.206 0.452-0.446 0.652-0.719 0.196-0.265 0.363-0.507 0.502-0.726v0c-0.813-0.157-1.504-0.347-2.075-0.57-0.569-0.217-1.126-0.476-1.671-0.777v0c-0.279-0.149-0.454-0.34-0.525-0.574v0c-0.059-0.195-0.038-0.371 0.063-0.529 0.101-0.158 0.252-0.268 0.452-0.329v0c0.24-0.073 0.485-0.059 0.736 0.042v0l0.353 0.148c1.003 0.411 1.817 0.701 2.443 0.872v0c0.405 0.097 0.934 0.194 1.587 0.294 0.66 0.097 1.337 0.181 2.032 0.253v0c0.588 0.069 0.989 0.457 1.204 1.164v0c0.101 0.331 0.141 0.57 0.122 0.717-0.019 0.147-0.093 0.241-0.223 0.281v0c-0.071 0.022-0.192 0.033-0.361 0.035-0.169 0.002-0.345-0.016-0.526-0.053v0c-0.486-0.086-0.879-0.083-1.177 0.008v0c-0.175 0.053-0.351 0.174-0.527 0.362-0.175 0.195-0.381 0.47-0.621 0.826v0c-0.385 0.528-0.723 0.942-1.014 1.243-0.291 0.301-0.644 0.514-1.059 0.641v0c-0.117 0.035-0.285 0.076-0.504 0.121v0c0.402 0.508 1.209 1.007 2.42 1.496v0c0.205 0.093 0.335 0.228 0.388 0.402v0c0.047 0.156 0.012 0.297-0.105 0.425-0.115 0.134-0.296 0.239-0.542 0.314v0c-0.447 0.136-0.848 0.134-1.203-0.006v0c-0.912-0.367-1.583-0.78-2.012-1.237-0.436-0.455-0.784-1.076-1.043-1.861v0c-0.546-0.351-0.918-0.854-1.118-1.509z" fill="#bf2051" data-fill-palette-color="accent"></path><path d="M6.565 99.556c-0.225-0.456-0.285-0.83-0.18-1.124 0.105-0.293 0.439-0.58 1.004-0.858v0c0.377-0.186 0.882-0.387 1.517-0.602 0.628-0.212 1.507-0.483 2.636-0.814v0c2.079-0.626 3.869-1.196 5.369-1.71v0c0.929-0.323 1.688-0.629 2.278-0.92v0c0.547-0.27 0.72-0.609 0.519-1.016v0c-0.156-0.316-0.505-0.616-1.046-0.901-0.544-0.291-1.304-0.528-2.279-0.711v0c-0.315-0.056-0.525-0.191-0.629-0.403v0c-0.084-0.17-0.075-0.36 0.025-0.569 0.101-0.209 0.255-0.364 0.462-0.466v0c0.201-0.099 0.421-0.159 0.66-0.178 0.24-0.02 0.532-0.002 0.877 0.054v0c1.111 0.184 2.07 0.527 2.877 1.029 0.798 0.498 1.375 1.109 1.732 1.832v0c0.333 0.675 0.375 1.296 0.127 1.864-0.254 0.572-0.792 1.06-1.612 1.465v0c-0.328 0.162-0.729 0.322-1.203 0.48-0.48 0.161-0.871 0.287-1.175 0.376-0.304 0.089-0.516 0.149-0.637 0.179v0c2.332-0.282 4.108-0.184 5.327 0.295 1.216 0.473 2.081 1.229 2.593 2.268v0c0.393 0.796 0.421 1.565 0.084 2.305-0.334 0.732-1.015 1.351-2.042 1.859v0c-0.407 0.201-0.935 0.394-1.585 0.578v0c1.992-0.22 3.554-0.103 4.686 0.351 1.14 0.457 1.973 1.218 2.498 2.281v0c0.423 0.857 0.471 1.65 0.142 2.379-0.319 0.732-0.974 1.342-1.964 1.831v0c-0.541 0.267-1.233 0.511-2.077 0.731v0l-5.803 1.47c-0.668 0.178-1.223 0.377-1.667 0.597v0c-0.51 0.252-0.835 0.56-0.973 0.922-0.144 0.366-0.11 0.765 0.103 1.196v0c0.198 0.401 0.528 0.726 0.99 0.974 0.459 0.257 1.128 0.494 2.006 0.71v0c0.248 0.059 0.419 0.182 0.512 0.371v0c0.078 0.158 0.064 0.32-0.043 0.486-0.101 0.163-0.279 0.308-0.534 0.434v0c-0.474 0.234-0.911 0.306-1.311 0.216v0c-1.081-0.26-1.953-0.611-2.618-1.054-0.661-0.452-1.162-1.021-1.5-1.708v0c-0.513-1.039-0.604-2.003-0.272-2.893 0.323-0.892 1.004-1.595 2.043-2.108v0c0.723-0.357 1.84-0.727 3.351-1.111v0l3.719-0.918c0.121-0.03 0.34-0.085 0.656-0.164 0.31-0.077 0.598-0.159 0.865-0.246 0.267-0.087 0.525-0.191 0.774-0.314v0c0.425-0.21 0.704-0.45 0.836-0.719 0.132-0.269 0.123-0.556-0.028-0.859v0c-0.285-0.577-0.951-1-1.998-1.27-1.05-0.26-2.573-0.252-4.569 0.022-1.987 0.278-4.439 0.914-7.357 1.909v0c-0.777 0.278-1.343 0.372-1.697 0.282-0.354-0.09-0.65-0.375-0.887-0.854v0c-0.204-0.413-0.255-0.762-0.153-1.047 0.101-0.284 0.423-0.56 0.963-0.827v0c0.498-0.246 1.188-0.503 2.068-0.771 0.88-0.268 1.921-0.571 3.123-0.907v0c3.238-0.896 5.286-1.555 6.143-1.979v0c0.462-0.228 0.757-0.487 0.886-0.777 0.132-0.284 0.111-0.603-0.063-0.955v0c-0.297-0.602-0.939-1.052-1.926-1.351-0.996-0.302-2.508-0.326-4.536-0.073-2.026 0.244-4.611 0.894-7.757 1.948v0c-0.671 0.218-1.168 0.305-1.493 0.26-0.324-0.044-0.603-0.303-0.837-0.777z" fill="#bf2051" data-fill-palette-color="accent"></path><path d="M28.049 131.91c-0.664-0.526-1.003-1.184-1.017-1.974-0.015-0.799 0.286-1.589 0.905-2.37v0c0.678-0.855 1.519-1.507 2.523-1.956 0.995-0.448 2.007-0.645 3.036-0.591 1.025 0.06 1.906 0.382 2.644 0.967v0c0.234 0.185 0.355 0.354 0.363 0.508 0.008 0.153-0.054 0.368-0.186 0.644v0c0.257 0.134 0.51 0.3 0.76 0.498v0c0.521 0.412 0.634 0.805 0.339 1.176v0c-0.181 0.228-0.686 0.702-1.514 1.421v0c-1.217 1.033-2.014 1.789-2.393 2.267v0c-0.13 0.165-0.194 0.326-0.19 0.485 0.004 0.159 0.07 0.289 0.197 0.39v0c0.202 0.16 0.554 0.223 1.057 0.188 0.493-0.033 1.215-0.148 2.167-0.345v0c0.255-0.049 0.462-0.01 0.621 0.116v0c0.138 0.109 0.194 0.262 0.169 0.458-0.021 0.191-0.12 0.397-0.297 0.621v0c-0.337 0.425-0.701 0.677-1.092 0.756v0c-0.87 0.192-1.699 0.284-2.487 0.274-0.789-0.02-1.411-0.21-1.868-0.573v0c-0.356-0.282-0.585-0.658-0.688-1.128-0.103-0.47-0.062-0.975 0.122-1.512v0c-1.269 0.456-2.326 0.349-3.171-0.32zM29.904 130.747c0.239 0.189 0.574 0.23 1.006 0.122 0.436-0.113 0.882-0.36 1.34-0.741v0l2.933-2.475c-0.46-0.347-1.007-0.508-1.641-0.483-0.639 0.021-1.283 0.211-1.931 0.571-0.648 0.36-1.208 0.837-1.679 1.432v0c-0.265 0.335-0.394 0.634-0.388 0.899 0.007 0.265 0.127 0.489 0.36 0.675z" fill="#bf2051" data-fill-palette-color="accent"></path><path d="M50.211 145.219c-0.672-0.234-1.13-0.566-1.375-0.996-0.251-0.432-0.309-0.843-0.173-1.234v0c0.116-0.333 0.341-0.577 0.676-0.733 0.328-0.158 0.729-0.155 1.202 0.01v0c0.173 0.06 0.366 0.145 0.579 0.255 0.213 0.11 0.375 0.192 0.485 0.245v0c0.105-0.344 0.142-0.686 0.11-1.027-0.032-0.341-0.102-0.685-0.21-1.032-0.113-0.355-0.223-0.666-0.332-0.934v0c-0.662 0.623-1.276 1.116-1.84 1.48-0.573 0.367-1.168 0.694-1.784 0.981v0c-0.311 0.15-0.597 0.179-0.86 0.088v0c-0.205-0.071-0.345-0.203-0.422-0.394-0.077-0.192-0.077-0.397-0.001-0.615v0c0.089-0.256 0.261-0.462 0.516-0.616v0l0.36-0.23c1.014-0.623 1.799-1.156 2.356-1.601v0c0.347-0.295 0.78-0.704 1.3-1.226 0.511-0.518 1.024-1.064 1.539-1.638v0c0.442-0.485 1.05-0.592 1.825-0.322v0c0.358 0.125 0.6 0.245 0.724 0.36 0.116 0.119 0.15 0.25 0.101 0.391v0c-0.027 0.077-0.095 0.189-0.204 0.338-0.109 0.149-0.241 0.289-0.395 0.422v0c-0.393 0.387-0.646 0.74-0.757 1.06v0c-0.067 0.192-0.073 0.427-0.019 0.704 0.06 0.279 0.17 0.644 0.329 1.094v0c0.222 0.68 0.372 1.249 0.449 1.707 0.086 0.453 0.051 0.904-0.105 1.352v0c-0.047 0.134-0.123 0.312-0.23 0.534v0c0.712-0.025 1.677-0.416 2.897-1.176v0c0.218-0.132 0.423-0.165 0.616-0.097v0c0.166 0.058 0.27 0.184 0.309 0.377 0.049 0.189 0.026 0.418-0.067 0.687v0c-0.17 0.486-0.434 0.843-0.793 1.069v0c-0.917 0.57-1.721 0.9-2.411 0.99-0.683 0.085-1.461-0.01-2.334-0.286v0c-0.67 0.254-1.357 0.259-2.061 0.013z" fill="#bf2051" data-fill-palette-color="accent"></path><path d="M80.22 142.94c0.176 0.003 0.31 0.096 0.402 0.281 0.092 0.178 0.136 0.402 0.131 0.673v0c-0.011 0.657-0.213 1.044-0.608 1.159v0c-0.825 0.271-1.728 0.42-2.711 0.445v0c-0.276 1.141-0.802 2.048-1.579 2.719-0.777 0.679-1.646 1.011-2.609 0.996v0c-0.82-0.013-1.518-0.221-2.094-0.624-0.57-0.409-0.998-0.941-1.286-1.596-0.294-0.662-0.435-1.373-0.424-2.132v0c0.017-1.037 0.231-1.958 0.645-2.765 0.406-0.807 0.962-1.432 1.667-1.875 0.698-0.443 1.471-0.658 2.318-0.644v0c1.037 0.017 1.864 0.386 2.483 1.108 0.625 0.729 0.984 1.619 1.076 2.671v0c0.644-0.03 1.409-0.157 2.293-0.38v0c0.109-0.025 0.207-0.037 0.296-0.036zM73.444 147.05c0.434 0.007 0.813-0.163 1.136-0.51 0.331-0.354 0.556-0.862 0.675-1.525v0c-0.422-0.298-0.741-0.68-0.957-1.143-0.216-0.464-0.32-0.957-0.312-1.48v0c0.003-0.217 0.027-0.433 0.072-0.649v0l-0.102-0.002c-0.549-0.009-1.007 0.245-1.375 0.761-0.368 0.523-0.559 1.258-0.574 2.207v0c-0.012 0.752 0.124 1.327 0.409 1.725 0.285 0.404 0.627 0.61 1.028 0.616z" fill="#bf2051" data-fill-palette-color="accent"></path><path d="M101.689 137.825c0.168-0.054 0.325-0.009 0.472 0.136 0.144 0.139 0.258 0.337 0.341 0.595v0c0.202 0.626 0.135 1.057-0.201 1.293v0c-0.693 0.523-1.5 0.955-2.423 1.296v0c0.107 1.169-0.098 2.197-0.617 3.084-0.516 0.893-1.232 1.488-2.148 1.784v0c-0.78 0.252-1.508 0.281-2.183 0.086-0.671-0.203-1.249-0.569-1.733-1.096-0.492-0.532-0.855-1.159-1.088-1.881v0c-0.319-0.987-0.413-1.928-0.283-2.826 0.124-0.895 0.448-1.665 0.973-2.312 0.518-0.645 1.18-1.097 1.986-1.357v0c0.987-0.319 1.889-0.237 2.708 0.246 0.827 0.488 1.454 1.215 1.88 2.181v0c0.6-0.237 1.283-0.603 2.048-1.1v0c0.095-0.059 0.184-0.102 0.268-0.129zM96.602 143.902c0.413-0.133 0.716-0.417 0.911-0.85 0.199-0.442 0.248-0.995 0.147-1.66v0c-0.496-0.146-0.921-0.404-1.275-0.774-0.355-0.37-0.612-0.803-0.773-1.299v0c-0.067-0.206-0.114-0.419-0.142-0.638v0l-0.096 0.031c-0.522 0.169-0.874 0.557-1.056 1.164-0.179 0.613-0.123 1.372 0.169 2.274v0c0.231 0.716 0.546 1.216 0.944 1.5 0.4 0.291 0.791 0.375 1.171 0.252z" fill="#bf2051" data-fill-palette-color="accent"></path><path d="M122.269 126.638c0.14-0.107 0.302-0.123 0.486-0.05 0.185 0.064 0.363 0.209 0.535 0.436v0c0.328 0.432 0.479 0.849 0.453 1.252v0c-0.033 0.876-0.169 1.711-0.408 2.505-0.238 0.785-0.619 1.376-1.142 1.774v0c-0.826 0.627-1.821 0.622-2.987-0.017v0c-0.02 0.926-0.126 1.615-0.319 2.068-0.192 0.453-0.518 0.853-0.977 1.201v0c-0.664 0.504-1.395 0.673-2.194 0.506-0.809-0.169-1.515-0.65-2.118-1.443v0c-0.66-0.869-1.087-1.817-1.279-2.845-0.195-1.018-0.148-2.011 0.138-2.977 0.291-0.961 0.801-1.791 1.531-2.49v0c-1.388-2.265-2.359-4.361-2.913-6.289-0.553-1.938-0.357-3.265 0.588-3.983v0c0.464-0.352 1.013-0.437 1.645-0.254 0.631 0.193 1.273 0.718 1.925 1.577v0c0.922 1.214 1.703 2.864 2.341 4.948 0.644 2.081 1.119 4.358 1.424 6.833v0c0.519 0.593 0.953 0.969 1.304 1.129 0.355 0.165 0.645 0.161 0.872-0.011v0c0.297-0.225 0.496-0.585 0.597-1.08 0.105-0.489 0.185-1.23 0.239-2.223v0c0.011-0.255 0.097-0.444 0.259-0.567zM112.696 118.016c-0.205 0.156-0.134 0.681 0.213 1.575 0.352 0.89 0.905 1.981 1.656 3.273 0.752 1.293 1.587 2.611 2.506 3.956v0c-0.798-3.572-1.808-6.162-3.029-7.771v0c-0.312-0.41-0.59-0.705-0.837-0.883-0.242-0.173-0.412-0.223-0.509-0.15zM117.229 133.734c0.21-0.16 0.355-0.401 0.433-0.725 0.078-0.323 0.099-0.833 0.064-1.529v0c-0.555-0.506-1.107-1.121-1.656-1.844v0c-0.201-0.264-0.512-0.696-0.933-1.296v0c-0.454 0.634-0.648 1.411-0.58 2.329 0.069 0.909 0.389 1.739 0.959 2.489v0c0.603 0.793 1.174 0.985 1.713 0.576z" fill="#bf2051" data-fill-palette-color="accent"></path><path d="M127.478 112.085c-0.202 0.272-0.445 0.446-0.729 0.522-0.28 0.071-0.585-0.042-0.915-0.336v0l-2.887-2.66c-0.926-0.856-1.077-1.705-0.451-2.549v0c0.533-0.719 1.139-0.826 1.82-0.321v0c0.152 0.113 0.334 0.29 0.544 0.529v0l2.536 2.894c0.297 0.339 0.439 0.671 0.425 0.998-0.019 0.332-0.133 0.64-0.343 0.923z" fill="#bf2051" data-fill-palette-color="accent"></path><path d="M145.979 98.405c-0.21 0.68-0.525 1.15-0.946 1.411-0.423 0.267-0.832 0.339-1.226 0.217v0c-0.337-0.104-0.589-0.32-0.758-0.648-0.17-0.322-0.182-0.723-0.034-1.202v0c0.054-0.175 0.132-0.371 0.234-0.587 0.102-0.217 0.178-0.381 0.227-0.494v0c-0.347-0.093-0.691-0.117-1.03-0.073-0.34 0.044-0.681 0.127-1.024 0.248-0.351 0.126-0.658 0.248-0.921 0.365v0c0.647 0.639 1.162 1.234 1.546 1.785 0.388 0.559 0.737 1.142 1.046 1.748v0c0.161 0.305 0.201 0.59 0.119 0.856v0c-0.064 0.207-0.19 0.353-0.379 0.436-0.189 0.084-0.393 0.091-0.614 0.024v0c-0.259-0.08-0.471-0.244-0.635-0.494v0l-0.242-0.351c-0.659-0.99-1.221-1.756-1.686-2.296v0c-0.308-0.336-0.732-0.754-1.273-1.254-0.536-0.492-1.101-0.985-1.693-1.48v0c-0.501-0.424-0.63-1.027-0.388-1.811v0c0.112-0.363 0.223-0.609 0.333-0.737 0.115-0.121 0.244-0.159 0.387-0.115v0c0.078 0.024 0.193 0.088 0.345 0.191 0.152 0.104 0.298 0.23 0.436 0.38v0c0.401 0.379 0.763 0.618 1.087 0.718v0c0.194 0.06 0.429 0.058 0.704-0.007 0.277-0.071 0.638-0.194 1.082-0.368v0c0.672-0.247 1.235-0.417 1.689-0.512 0.45-0.102 0.902-0.084 1.355 0.056v0c0.136 0.042 0.317 0.112 0.542 0.21v0c-0.05-0.711-0.477-1.661-1.28-2.852v0c-0.14-0.213-0.18-0.417-0.12-0.611v0c0.052-0.168 0.174-0.276 0.365-0.324 0.187-0.056 0.417-0.042 0.689 0.042v0c0.492 0.152 0.858 0.403 1.098 0.753v0c0.603 0.895 0.962 1.687 1.077 2.375 0.11 0.679 0.043 1.46-0.201 2.342v0c0.279 0.66 0.308 1.347 0.089 2.059z" fill="#bf2051" data-fill-palette-color="accent"></path><path d="M0 75.192c0-3.68 2.983-6.664 6.664-6.664 3.68 0 6.664 2.983 6.663 6.664 0 3.68-2.983 6.664-6.663 6.663-3.68 0-6.664-2.983-6.664-6.663z" fill="#bf2051" data-fill-palette-color="accent"></path><path d="M137.731 75.192c0-3.68 2.983-6.664 6.664-6.664 3.68 0 6.664 2.983 6.664 6.664 0 3.68-2.983 6.664-6.664 6.663-3.68 0-6.664-2.983-6.664-6.663z" fill="#bf2051" data-fill-palette-color="accent"></path></g></svg></g></svg></g></svg></g></svg></g><g><path d="M0 123.6c0-68.262 55.338-123.6 123.6-123.6 51.682 0 95.956 31.721 114.414 76.755l-1.502 0c-18.379-44.25-62.012-75.367-112.912-75.367-67.496 0-122.212 54.716-122.212 122.212 0 67.496 54.716 122.212 122.212 122.212 50.901 0 94.533-31.118 112.912-75.367h1.502c-18.458 45.035-62.732 76.755-114.414 76.755-68.262 0-123.6-55.338-123.6-123.6z" fill="#ffffff" stroke="transparent" data-fill-palette-color="tertiary"></path></g></svg></g><defs></defs></svg><rect width="395.52" height="247.2" fill="none" stroke="none" visibility="hidden"></rect></g></svg></g></svg>